<svg width="685" height="411" viewBox="0 0 685 411" fill="none"
    xmlns="http://www.w3.org/2000/svg">
    <g filter="url(#filter0_bd_29_62543)">
        <g clipPath="url(#clip0_29_62543)">
            <path d="M152.633 41.6945C162.42 24.7424 184.097 18.9342 201.049 28.7215L624.634 273.278C641.586 283.066 647.395 304.742 637.607 321.695L504.696 551.904C494.908 568.856 473.232 574.664 456.28 564.877L32.6947 320.32C15.7425 310.533 9.93425 288.856 19.7216 271.904L152.633 41.6945Z" fill="url(#paint0_linear_29_62543)" />
            <g filter="url(#filter1_f_29_62543)">
                <path opacity="0.3" d="M89.0905 95.0453C128.24 27.2368 214.946 4.00383 282.755 43.1531L211.869 165.931L89.0905 95.0453Z" fill="#EE46BC" />
                <path opacity="0.3" d="M282.755 43.1531C350.563 82.3024 373.796 169.009 334.647 236.817L211.869 165.931L282.755 43.1531Z" fill="#FB6514" />
                <path opacity="0.3" d="M89.0908 95.0452L211.869 165.931L140.983 288.71C73.1745 249.56 49.9415 162.854 89.0908 95.0452Z" fill="#2E90FA" />
                <path opacity="0.3" d="M211.869 165.931L334.647 236.817C295.498 304.626 208.792 327.859 140.983 288.71L211.869 165.931Z" fill="#12B76A" />
            </g>
            <path d="M50.0272 287.208L58.6044 272.352L54.1075 272.457L55.7591 269.596L60.2348 269.528L62.85 271.038L52.6424 288.718L50.0272 287.208ZM60.5042 293.241L61.835 290.964L73.517 288.509C74.4557 288.319 75.1796 288.039 75.6889 287.667C76.2064 287.3 76.6092 286.867 76.8975 286.368C77.2614 285.738 77.4483 285.093 77.4583 284.433C77.473 283.764 77.3198 283.141 76.9989 282.563C76.6779 281.985 76.1981 281.511 75.5597 281.143C74.9049 280.765 74.2299 280.582 73.5346 280.596C72.8523 280.605 72.2214 280.781 71.6419 281.124C71.0624 281.466 70.6066 281.934 70.2746 282.528L67.6471 281.011C68.3087 279.865 69.1455 279.011 70.1573 278.449C71.1821 277.884 72.2882 277.622 73.4756 277.664C74.6677 277.697 75.849 278.052 77.0194 278.728C78.1326 279.371 78.9847 280.201 79.5757 281.219C80.1715 282.228 80.4703 283.318 80.4721 284.486C80.4821 285.66 80.1634 286.807 79.516 287.929C79.0481 288.739 78.5448 289.365 78.0059 289.807C77.467 290.249 76.8453 290.589 76.1408 290.826C75.4364 291.063 74.6019 291.28 73.6374 291.476L64.6326 293.349L64.7756 292.449L73.8734 297.702L72.4628 300.145L60.5042 293.241ZM83.8402 307.172C82.9644 306.667 82.2363 306.028 81.6559 305.256C81.0803 304.477 80.6873 303.617 80.4769 302.677C80.2747 301.741 80.2878 300.783 80.5161 299.802L83.3932 300.546C83.191 301.444 83.2665 302.268 83.6196 303.018C83.9773 303.759 84.5187 304.334 85.2438 304.741C85.8951 305.106 86.5514 305.283 87.2126 305.272C87.8739 305.261 88.4878 305.086 89.0544 304.748C89.6257 304.401 90.1003 303.9 90.4784 303.245C91.0455 302.263 91.2064 301.276 90.9611 300.283C90.724 299.294 90.1143 298.517 89.1321 297.95C88.8538 297.789 88.5437 297.665 88.2018 297.576C87.868 297.493 87.5365 297.443 87.2071 297.428L87.1735 294.707L96.5934 292.795L96.4382 293.688L87.8438 288.726L89.2544 286.283L99.887 292.422L98.4764 294.865L90.4171 296.858L90.8746 296.009C91.9878 296.652 92.8095 297.459 93.3398 298.431C93.8748 299.395 94.1175 300.43 94.068 301.536C94.0315 302.639 93.7107 303.715 93.1058 304.762C92.4537 305.892 91.6088 306.741 90.5711 307.31C89.5416 307.883 88.4366 308.162 87.2561 308.146C86.0839 308.135 84.9452 307.81 83.8402 307.172ZM104.309 318.548L106.088 315.466L98.1075 310.859L99.511 308.428L112.282 299.578L115.216 301.272L102.445 310.122L107.492 313.035L110.256 308.247L112.859 309.75L110.095 314.538L111.85 315.552L110.447 317.983L108.691 316.969L106.912 320.051L104.309 318.548ZM126.979 331.637L135.557 316.781L131.06 316.885L132.711 314.025L137.187 313.957L139.802 315.467L129.595 333.147L126.979 331.637ZM137.456 337.669L138.787 335.393L150.469 332.937C151.408 332.748 152.132 332.467 152.641 332.096C153.159 331.729 153.561 331.296 153.85 330.796C154.214 330.166 154.401 329.521 154.411 328.861C154.425 328.193 154.272 327.57 153.951 326.991C153.63 326.413 153.15 325.94 152.512 325.571C151.857 325.193 151.182 325.011 150.487 325.024C149.805 325.034 149.174 325.21 148.594 325.552C148.015 325.894 147.559 326.362 147.227 326.956L144.599 325.439C145.261 324.293 146.098 323.439 147.11 322.878C148.134 322.313 149.24 322.051 150.428 322.092C151.62 322.126 152.801 322.48 153.972 323.156C155.085 323.799 155.937 324.629 156.528 325.647C157.124 326.657 157.423 327.746 157.424 328.915C157.434 330.088 157.116 331.236 156.468 332.357C156 333.168 155.497 333.794 154.958 334.236C154.419 334.677 153.798 335.017 153.093 335.254C152.389 335.491 151.554 335.708 150.59 335.904L141.585 337.777L141.728 336.878L150.826 342.13L149.415 344.574L137.456 337.669ZM160.792 351.601C159.917 351.095 159.189 350.456 158.608 349.685C158.033 348.905 157.639 348.045 157.429 347.105C157.227 346.17 157.24 345.212 157.468 344.23L160.345 344.975C160.143 345.873 160.219 346.697 160.572 347.446C160.93 348.188 161.471 348.762 162.196 349.17C162.847 349.535 163.504 349.712 164.165 349.701C164.826 349.69 165.44 349.515 166.007 349.176C166.578 348.829 167.053 348.329 167.431 347.674C167.998 346.691 168.159 345.704 167.913 344.711C167.676 343.723 167.067 342.945 166.084 342.378C165.806 342.218 165.496 342.093 165.154 342.005C164.82 341.921 164.489 341.872 164.159 341.856L164.126 339.136L173.546 337.224L173.39 338.116L164.796 333.154L166.207 330.711L176.839 336.85L175.429 339.293L167.369 341.287L167.827 340.438C168.94 341.08 169.762 341.888 170.292 342.859C170.827 343.823 171.07 344.858 171.02 345.965C170.984 347.068 170.663 348.143 170.058 349.191C169.406 350.32 168.561 351.169 167.523 351.738C166.494 352.311 165.389 352.59 164.208 352.574C163.036 352.563 161.897 352.239 160.792 351.601ZM181.261 362.976L183.04 359.895L175.06 355.287L176.463 352.856L189.234 344.006L192.169 345.7L179.398 354.55L184.444 357.464L187.208 352.675L189.811 354.178L187.047 358.966L188.802 359.98L187.399 362.411L185.643 361.397L183.864 364.479L181.261 362.976ZM203.932 376.065L212.509 361.209L208.012 361.314L209.664 358.453L214.139 358.385L216.754 359.895L206.547 377.575L203.932 376.065ZM214.409 382.098L215.739 379.821L227.421 377.366C228.36 377.176 229.084 376.896 229.593 376.524C230.111 376.157 230.514 375.724 230.802 375.225C231.166 374.594 231.353 373.949 231.363 373.289C231.377 372.621 231.224 371.998 230.903 371.42C230.582 370.842 230.103 370.368 229.464 370C228.809 369.621 228.134 369.439 227.439 369.452C226.757 369.462 226.126 369.638 225.546 369.98C224.967 370.322 224.511 370.791 224.179 371.385L221.552 369.868C222.213 368.722 223.05 367.868 224.062 367.306C225.087 366.741 226.193 366.479 227.38 366.521C228.572 366.554 229.753 366.909 230.924 367.585C232.037 368.227 232.889 369.058 233.48 370.075C234.076 371.085 234.375 372.174 234.377 373.343C234.387 374.517 234.068 375.664 233.42 376.786C232.953 377.596 232.449 378.222 231.91 378.664C231.371 379.106 230.75 379.445 230.045 379.683C229.341 379.92 228.506 380.136 227.542 380.333L218.537 382.206L218.68 381.306L227.778 386.559L226.367 389.002L214.409 382.098ZM237.745 396.029C236.869 395.523 236.141 394.885 235.56 394.113C234.985 393.333 234.592 392.474 234.381 391.534C234.179 390.598 234.192 389.64 234.421 388.659L237.298 389.403C237.096 390.301 237.171 391.125 237.524 391.875C237.882 392.616 238.423 393.19 239.148 393.598C239.8 393.963 240.456 394.14 241.117 394.129C241.778 394.118 242.392 393.943 242.959 393.605C243.53 393.258 244.005 392.757 244.383 392.102C244.95 391.12 245.111 390.132 244.866 389.139C244.628 388.151 244.019 387.374 243.037 386.807C242.758 386.646 242.448 386.521 242.106 386.433C241.773 386.35 241.441 386.3 241.112 386.285L241.078 383.564L250.498 381.652L250.343 382.545L241.748 377.583L243.159 375.14L253.791 381.278L252.381 383.722L244.322 385.715L244.779 384.866C245.892 385.509 246.714 386.316 247.244 387.288C247.779 388.251 248.022 389.287 247.973 390.393C247.936 391.496 247.615 392.571 247.01 393.619C246.358 394.749 245.513 395.598 244.476 396.166C243.446 396.74 242.341 397.019 241.161 397.003C239.988 396.992 238.85 396.667 237.745 396.029ZM258.213 407.405L259.993 404.323L252.012 399.715L253.416 397.284L266.186 388.434L269.121 390.129L256.35 398.979L261.396 401.892L264.161 397.104L266.764 398.606L263.999 403.395L265.755 404.408L264.351 406.839L262.595 405.826L260.816 408.907L258.213 407.405ZM280.884 420.494L289.461 405.637L284.964 405.742L286.616 402.882L291.092 402.814L293.707 404.323L283.499 422.003L280.884 420.494ZM291.361 426.526L292.692 424.25L304.374 421.794C305.312 421.605 306.036 421.324 306.546 420.953C307.063 420.586 307.466 420.152 307.754 419.653C308.118 419.023 308.305 418.378 308.315 417.718C308.33 417.05 308.177 416.426 307.856 415.848C307.535 415.27 307.055 414.797 306.416 414.428C305.762 414.05 305.087 413.868 304.391 413.881C303.709 413.891 303.078 414.067 302.499 414.409C301.919 414.751 301.463 415.219 301.131 415.813L298.504 414.296C299.165 413.15 300.002 412.296 301.014 411.735C302.039 411.169 303.145 410.908 304.332 410.949C305.524 410.983 306.706 411.337 307.876 412.013C308.989 412.656 309.841 413.486 310.432 414.504C311.028 415.514 311.327 416.603 311.329 417.772C311.339 418.945 311.02 420.093 310.373 421.214C309.905 422.024 309.402 422.65 308.863 423.092C308.324 423.534 307.702 423.874 306.998 424.111C306.293 424.348 305.459 424.565 304.494 424.761L295.489 426.634L295.632 425.734L304.73 430.987L303.32 433.43L291.361 426.526ZM314.697 440.458C313.821 439.952 313.093 439.313 312.513 438.542C311.937 437.762 311.544 436.902 311.334 435.962C311.131 435.027 311.145 434.068 311.373 433.087L314.25 433.831C314.048 434.73 314.123 435.553 314.476 436.303C314.834 437.044 315.375 437.619 316.101 438.027C316.752 438.392 317.408 438.569 318.069 438.558C318.731 438.546 319.345 438.372 319.911 438.033C320.482 437.686 320.957 437.185 321.335 436.531C321.902 435.548 322.063 434.561 321.818 433.568C321.581 432.58 320.971 431.802 319.989 431.235C319.711 431.074 319.4 430.95 319.059 430.862C318.725 430.778 318.393 430.728 318.064 430.713L318.03 427.992L327.45 426.081L327.295 426.973L318.701 422.011L320.111 419.568L330.744 425.707L329.333 428.15L321.274 430.143L321.731 429.294C322.845 429.937 323.666 430.744 324.197 431.716C324.732 432.68 324.974 433.715 324.925 434.821C324.888 435.924 324.567 437 323.963 438.047C323.31 439.177 322.466 440.026 321.428 440.595C320.398 441.168 319.293 441.447 318.113 441.431C316.941 441.42 315.802 441.096 314.697 440.458ZM335.166 451.833L336.945 448.751L328.964 444.144L330.368 441.713L343.139 432.863L346.073 434.557L333.302 443.407L338.348 446.32L341.113 441.532L343.716 443.035L340.951 447.823L342.707 448.837L341.303 451.268L339.548 450.254L337.768 453.336L335.166 451.833Z" fill="white" />
            <path d="M76.6561 245.757C75.3301 244.991 74.3671 244.05 73.7672 242.935C73.1708 241.813 72.9234 240.589 73.0252 239.265C73.133 237.944 73.5822 236.599 74.3725 235.23C75.1629 233.861 76.1032 232.799 77.1933 232.046C78.2895 231.295 79.4708 230.901 80.737 230.862C82.0069 230.818 83.3048 231.179 84.6308 231.944C85.9506 232.706 86.9088 233.648 87.5052 234.77C88.1113 235.889 88.3604 237.11 88.2525 238.431C88.1446 239.752 87.6955 241.097 86.9051 242.466C86.1148 243.835 85.1745 244.896 84.0844 245.65C82.9943 246.404 81.8113 246.801 80.5353 246.842C79.269 246.881 77.976 246.519 76.6561 245.757ZM77.7141 243.924C78.6462 244.479 79.5446 244.723 80.4092 244.658C81.2835 244.589 82.0969 244.265 82.8495 243.685C83.6056 243.098 84.2761 242.298 84.8609 241.285C85.4457 240.272 85.7995 239.298 85.9224 238.362C86.0488 237.42 85.9212 236.557 85.5396 235.772C85.1641 234.99 84.5085 234.325 83.5728 233.777C82.6406 233.222 81.7392 232.976 80.8685 233.038C80.0039 233.103 79.1935 233.43 78.4374 234.016C77.6813 234.603 77.0077 235.401 76.4168 236.41C75.8258 237.42 75.4672 238.395 75.3408 239.337C75.2179 240.273 75.3473 241.134 75.7289 241.919C76.1166 242.707 76.7784 243.376 77.7141 243.924ZM86.0191 250.794L93.6748 237.534L95.5993 238.645L88.991 250.091L94.9948 253.558L93.9475 255.372L86.0191 250.794ZM96.6159 256.912L104.272 243.652L106.196 244.763L98.5404 258.023L96.6159 256.912ZM105.339 261.948L108.685 246.2L110.683 247.354L107.824 260.792L118.078 251.623L120.076 252.777L108.111 263.549L105.339 261.948ZM114.914 267.477L122.57 254.216L124.494 255.328L116.838 268.588L114.914 267.477ZM119.604 270.184L131.569 259.412L134.341 261.012L130.994 276.761L128.996 275.607L132.013 261.216L132.511 261.503L121.602 271.338L119.604 270.184ZM123.569 268.483L124.611 266.679L131.536 270.677L130.494 272.481L123.569 268.483ZM138.175 280.906L145.831 267.646L151.19 270.741C151.319 270.815 151.475 270.913 151.658 271.035C151.845 271.151 152.016 271.274 152.17 271.404C152.839 271.946 153.308 272.552 153.575 273.223C153.849 273.897 153.939 274.599 153.844 275.33C153.75 276.061 153.497 276.783 153.086 277.495C152.476 278.551 151.68 279.307 150.696 279.762C149.717 280.211 148.632 280.219 147.441 279.786L146.605 279.426L142.848 277.257L140.1 282.018L138.175 280.906ZM145.929 285.383L146.429 278.477L148.659 279.101L148.129 286.653L145.929 285.383ZM143.901 275.434L147.262 277.374C147.385 277.445 147.523 277.517 147.678 277.59C147.838 277.666 147.995 277.728 148.148 277.775C148.594 277.91 149.007 277.923 149.389 277.816C149.773 277.703 150.112 277.513 150.404 277.248C150.696 276.983 150.936 276.688 151.124 276.363C151.312 276.037 151.446 275.685 151.526 275.305C151.609 274.92 151.602 274.535 151.505 274.151C151.411 273.761 151.194 273.407 150.854 273.088C150.74 272.973 150.61 272.865 150.464 272.764C150.323 272.667 150.192 272.583 150.069 272.512L146.708 270.572L143.901 275.434ZM151.074 288.354L158.73 275.094L160.654 276.205L157.353 281.923L163.983 285.751L167.284 280.033L169.218 281.149L161.562 294.409L159.629 293.293L162.935 287.565L156.305 283.737L152.999 289.465L151.074 288.354ZM168.265 298.279L171.429 292.8L171.437 282.43L173.683 283.727L173.681 291.154L180.111 287.438L182.358 288.735L173.381 293.927L170.218 299.406L168.265 298.279ZM176.908 303.269L184.564 290.009L193.035 294.9L191.988 296.714L185.441 292.934L183.293 296.654L188.735 299.796L187.688 301.61L182.246 298.468L179.88 302.566L186.427 306.346L185.38 308.16L176.908 303.269Z" fill="white" />
            <path d="M315.272 383.522C314.37 383.001 313.685 382.343 313.218 381.55C312.755 380.75 312.524 379.889 312.526 378.965C312.533 378.044 312.797 377.133 313.318 376.23L315.955 371.663C316.476 370.76 317.134 370.076 317.927 369.609C318.727 369.146 319.587 368.918 320.507 368.925C321.431 368.927 322.344 369.188 323.247 369.709C324.149 370.23 324.832 370.89 325.296 371.69C325.762 372.483 325.992 373.34 325.984 374.261C325.983 375.185 325.722 376.098 325.201 377.001L322.564 381.568C322.043 382.47 321.382 383.153 320.583 383.617C319.789 384.083 318.931 384.316 318.007 384.315C317.086 384.307 316.175 384.043 315.272 383.522ZM316.336 381.68C316.827 381.964 317.339 382.104 317.873 382.101C318.416 382.095 318.923 381.962 319.393 381.701C319.866 381.435 320.246 381.052 320.533 380.555L323.319 375.73C323.603 375.239 323.74 374.725 323.731 374.187C323.725 373.644 323.587 373.139 323.317 372.672C323.056 372.202 322.68 371.825 322.189 371.542C321.698 371.258 321.181 371.119 320.637 371.124C320.103 371.127 319.6 371.262 319.127 371.529C318.657 371.79 318.28 372.166 317.997 372.657L315.211 377.482C314.924 377.98 314.783 378.5 314.788 379.043C314.797 379.581 314.932 380.084 315.193 380.554C315.464 381.021 315.844 381.396 316.336 381.68ZM327.945 390.838C327.085 390.342 326.429 389.693 325.975 388.891C325.525 388.082 325.303 387.205 325.309 386.259C325.321 385.317 325.589 384.391 326.114 383.483L328.554 379.256C329.111 378.292 329.799 377.56 330.62 377.06C331.447 376.563 332.334 376.318 333.28 376.324C334.232 376.334 335.174 376.608 336.108 377.146C336.807 377.551 337.388 378.062 337.85 378.68C338.311 379.299 338.615 379.998 338.762 380.779L336.593 381.282C336.529 380.811 336.362 380.371 336.091 379.961C335.83 379.548 335.485 379.218 335.055 378.97C334.502 378.651 333.941 378.503 333.371 378.526C332.805 378.542 332.28 378.694 331.796 378.979C331.318 379.268 330.939 379.655 330.659 380.14L329.256 382.571L329.123 381.929C329.79 381.652 330.49 381.532 331.221 381.569C331.953 381.607 332.641 381.812 333.285 382.184C334.108 382.659 334.73 383.276 335.151 384.035C335.582 384.791 335.792 385.604 335.781 386.473C335.776 387.346 335.537 388.194 335.062 389.017C334.583 389.846 333.94 390.477 333.133 390.911C332.335 391.343 331.474 391.558 330.55 391.557C329.636 391.553 328.767 391.313 327.945 390.838ZM329.013 388.987C329.492 389.264 329.995 389.399 330.523 389.392C331.051 389.386 331.544 389.254 332.005 388.995C332.465 388.737 332.833 388.369 333.109 387.89C333.386 387.411 333.521 386.908 333.514 386.38C333.514 385.856 333.385 385.364 333.127 384.904C332.868 384.444 332.5 384.076 332.021 383.799C331.542 383.523 331.036 383.386 330.502 383.389C329.975 383.395 329.481 383.528 329.021 383.786C328.561 384.044 328.192 384.412 327.916 384.891C327.643 385.364 327.51 385.864 327.516 386.392C327.523 386.919 327.653 387.416 327.908 387.882C328.166 388.343 328.535 388.711 329.013 388.987ZM346.913 383.741L348.856 384.863L337.664 396.081L335.721 394.96L346.913 383.741ZM344.161 399.82L345.159 398.113L353.921 396.271C354.625 396.129 355.168 395.919 355.55 395.64C355.938 395.365 356.24 395.04 356.456 394.665C356.729 394.192 356.869 393.709 356.877 393.214C356.888 392.713 356.773 392.245 356.532 391.812C356.291 391.378 355.931 391.023 355.453 390.746C354.961 390.463 354.455 390.326 353.934 390.336C353.422 390.343 352.949 390.475 352.514 390.732C352.08 390.988 351.738 391.34 351.489 391.785L349.518 390.647C350.014 389.788 350.642 389.148 351.401 388.726C352.169 388.302 352.999 388.106 353.889 388.137C354.784 388.162 355.67 388.428 356.547 388.935C357.382 389.417 358.021 390.04 358.465 390.803C358.911 391.561 359.136 392.377 359.137 393.254C359.144 394.134 358.905 394.995 358.42 395.836C358.069 396.444 357.691 396.913 357.287 397.245C356.883 397.576 356.417 397.831 355.888 398.009C355.36 398.187 354.734 398.349 354.011 398.496L347.257 399.901L347.364 399.226L354.188 403.166L353.13 404.998L344.161 399.82ZM361.511 409.849L362.846 407.538L356.86 404.082L357.913 402.259L367.491 395.622L369.692 396.892L360.114 403.53L363.898 405.715L365.972 402.124L367.924 403.251L365.851 406.842L367.167 407.602L366.115 409.425L364.798 408.665L363.463 410.977L361.511 409.849Z" fill="white" />
            <path d="M188.77 76.47C189.129 75.6614 189.128 74.8705 188.768 74.097C188.415 73.3269 187.758 72.665 186.799 72.1112C186.125 71.7219 185.487 71.4896 184.887 71.4145C184.287 71.3394 183.759 71.4024 183.302 71.6036C182.845 71.8047 182.484 72.1274 182.22 72.5717C182.005 72.9437 181.903 73.315 181.914 73.6856C181.93 74.0595 182.031 74.428 182.217 74.791C182.406 75.1482 182.644 75.4948 182.931 75.8308C183.217 76.1667 183.518 76.4841 183.834 76.7827L185.267 78.1679C185.851 78.7142 186.376 79.3006 186.844 79.9272C187.317 80.5571 187.684 81.2181 187.943 81.9104C188.208 82.6059 188.32 83.3254 188.278 84.0687C188.236 84.8121 187.992 85.5703 187.546 86.3435C186.942 87.3899 186.143 88.157 185.148 88.6446C184.157 89.1264 183.026 89.2992 181.756 89.1628C180.495 89.024 179.15 88.5417 177.72 87.716C176.33 86.9139 175.248 86.0023 174.473 84.9814C173.704 83.9639 173.271 82.8762 173.172 81.7184C173.078 80.564 173.351 79.3804 173.989 78.1677L177.172 80.0053C176.859 80.6541 176.753 81.2823 176.851 81.8897C176.95 82.4971 177.211 83.0586 177.634 83.5742C178.063 84.0932 178.615 84.5474 179.289 84.9367C179.993 85.3428 180.67 85.5939 181.319 85.6901C181.978 85.7838 182.568 85.729 183.089 85.5256C183.612 85.3165 184.025 84.9578 184.326 84.4496C184.589 83.9811 184.674 83.5186 184.581 83.0619C184.491 82.5994 184.264 82.1271 183.899 81.6451C183.543 81.1606 183.092 80.6523 182.547 80.1204L180.817 78.4241C179.565 77.1971 178.732 75.9532 178.321 74.6925C177.919 73.4292 178.087 72.1582 178.825 70.8792C179.433 69.827 180.249 69.0701 181.276 68.6084C182.308 68.15 183.444 67.9881 184.684 68.1227C185.927 68.2515 187.173 68.6767 188.423 69.3983C189.691 70.13 190.673 70.9919 191.372 71.9842C192.079 72.974 192.481 74.0161 192.578 75.1106C192.678 76.1993 192.447 77.2515 191.883 78.2673L188.77 76.47ZM193.087 96.5769C191.779 95.8217 190.812 94.8795 190.185 93.7501C189.558 92.6208 189.279 91.3861 189.347 90.0459C189.421 88.709 189.858 87.3488 190.657 85.9652C191.455 84.5816 192.417 83.5206 193.541 82.7821C194.671 82.0469 195.881 81.6684 197.173 81.6467C198.464 81.625 199.764 81.9917 201.072 82.7469C202.38 83.5021 203.347 84.4443 203.974 85.5736C204.601 86.703 204.876 87.939 204.798 89.2816C204.727 90.6276 204.291 91.9924 203.493 93.376C202.694 94.7596 201.731 95.8161 200.605 96.5454C199.484 97.2781 198.278 97.6554 196.987 97.6771C195.695 97.6988 194.395 97.3321 193.087 96.5769ZM194.565 94.0582C195.274 94.4676 195.979 94.6152 196.681 94.501C197.386 94.3809 198.046 94.0566 198.661 93.5281C199.282 93.003 199.827 92.3335 200.297 91.5196C200.771 90.7 201.079 89.8899 201.224 89.0896C201.377 88.2868 201.33 87.5502 201.081 86.8796C200.833 86.2091 200.354 85.6691 199.645 85.2596C198.918 84.8401 198.199 84.6887 197.488 84.8054C196.784 84.9255 196.119 85.251 195.495 85.7819C194.879 86.3104 194.335 86.9845 193.862 87.8042C193.392 88.618 193.082 89.4235 192.932 90.2204C192.788 91.0208 192.84 91.7562 193.088 92.4267C193.346 93.0948 193.838 93.6386 194.565 94.0582ZM202.335 101.568L210.069 88.1736L213.129 89.9407L211.84 92.173L211.98 92.2536C212.67 91.6214 213.433 91.2671 214.268 91.1909C215.111 91.1123 215.917 91.2944 216.684 91.7375C216.859 91.8382 217.049 91.9593 217.254 92.101C217.468 92.2401 217.639 92.3662 217.768 92.4792L216.091 95.3829C215.984 95.2592 215.796 95.096 215.525 94.8933C215.264 94.6882 214.999 94.5084 214.732 94.354C214.156 94.0217 213.567 93.848 212.963 93.8328C212.369 93.8152 211.815 93.9489 211.302 94.2338C210.788 94.5188 210.367 94.9461 210.038 95.5159L205.492 103.39L202.335 101.568ZM227.212 98.0714L225.802 100.513L218.103 96.0676L219.512 93.626L227.212 98.0714ZM223.266 91.5145L226.423 93.337L219.163 105.911C218.918 106.336 218.794 106.698 218.791 106.999C218.797 107.297 218.884 107.549 219.052 107.754C219.22 107.96 219.435 108.138 219.697 108.289C219.894 108.403 220.083 108.493 220.263 108.558C220.448 108.626 220.591 108.674 220.692 108.701L219.799 111.476C219.597 111.436 219.318 111.361 218.964 111.25C218.616 111.141 218.215 110.964 217.76 110.717C216.956 110.284 216.313 109.754 215.83 109.126C215.351 108.493 215.086 107.79 215.037 107.017C214.992 106.247 215.215 105.446 215.704 104.612L223.266 91.5145ZM222.119 112.99L229.852 99.5956L233.009 101.418L225.276 114.812L222.119 112.99ZM232.537 98.611C232.037 98.3223 231.702 97.9083 231.533 97.3688C231.367 96.8235 231.42 96.3155 231.692 95.8446C231.967 95.3679 232.381 95.0679 232.933 94.9446C233.488 94.8155 234.015 94.8953 234.515 95.184C235.021 95.476 235.354 95.8929 235.514 96.4348C235.683 96.9743 235.63 97.4824 235.355 97.9591C235.083 98.43 234.669 98.7299 234.114 98.859C233.568 98.9856 233.042 98.903 232.537 98.611ZM243.039 107.209L241.629 109.651L233.712 105.079L235.121 102.638L243.039 107.209ZM229.368 117.175L237.831 102.516C238.351 101.615 238.97 100.973 239.688 100.589C240.411 100.208 241.175 100.052 241.98 100.122C242.785 100.191 243.574 100.449 244.347 100.895C244.894 101.211 245.354 101.535 245.728 101.867C246.102 102.199 246.371 102.459 246.534 102.646L244.496 104.725C244.386 104.607 244.241 104.469 244.061 104.311C243.884 104.147 243.671 103.993 243.421 103.849C242.834 103.51 242.336 103.412 241.928 103.556C241.528 103.697 241.177 104.03 240.875 104.553L232.533 119.002L229.368 117.175Z" fill="white" />
            <g clipPath="url(#clip1_29_62543)">
                <path d="M598.319 301.643C598.319 308.309 596.564 314.857 593.231 320.63C589.898 326.403 585.104 331.197 579.331 334.53M588.995 301.083C588.995 306.282 587.626 311.39 585.027 315.893C582.427 320.396 578.688 324.135 574.185 326.735M580.171 300.417C580.154 304.207 579.144 307.934 577.245 311.225C575.345 314.515 572.621 317.253 569.348 319.163M571.195 300.015C571.343 302.468 570.781 304.878 569.573 306.971C568.364 309.064 566.558 310.756 564.36 311.854" stroke="white" strokeWidth="4.55696" strokeLinecap="round" />
            </g>
        </g>
        <path d="M200.163 30.2562L623.748 274.813L625.52 271.744L201.935 27.1868L200.163 30.2562ZM636.072 320.808L503.161 551.018L506.231 552.79L639.142 322.581L636.072 320.808ZM457.166 563.342L33.5807 318.785L31.8086 321.855L455.394 566.412L457.166 563.342ZM21.2563 272.79L154.168 42.5806L151.098 40.8085L18.1868 271.018L21.2563 272.79ZM33.5807 318.785C17.4762 309.487 11.9584 288.894 21.2563 272.79L18.1868 271.018C7.91016 288.818 14.0088 311.578 31.8086 321.855L33.5807 318.785ZM503.161 551.018C493.863 567.122 473.27 572.64 457.166 563.342L455.394 566.412C473.193 576.688 495.954 570.59 506.231 552.79L503.161 551.018ZM623.748 274.813C639.853 284.111 645.37 304.704 636.072 320.808L639.142 322.581C649.419 304.781 643.32 282.02 625.52 271.744L623.748 274.813ZM201.935 27.1868C184.135 16.9101 161.375 23.0087 151.098 40.8085L154.168 42.5806C163.466 26.4761 184.058 20.9583 200.163 30.2562L201.935 27.1868Z" fill="url(#paint1_linear_29_62543)" />
    </g>
    <defs>
        <filter id="filter0_bd_29_62543" x="-19.2658" y="-10.2658" width="717.126" height="638.94" filterUnits="userSpaceOnUse" colorInterpolationFilters="sRGB">
            <feFlood floodOpacity="0" result="BackgroundImageFix" />
            <feGaussianBlur in="BackgroundImage" stdDeviation="10.6329" />
            <feComposite in2="SourceAlpha" operator="in" result="effect1_backgroundBlur_29_62543" />
            <feColorMatrix in="SourceAlpha" type="matrix" values="0 0 0 0 0 0 0 0 0 0 0 0 0 0 0 0 0 0 127 0" result="hardAlpha" />
            <feOffset dx="14.1772" dy="17.7215" />
            <feGaussianBlur stdDeviation="14.1772" />
            <feColorMatrix type="matrix" values="0 0 0 0 0 0 0 0 0 0 0 0 0 0 0 0 0 0 0.05 0" />
            <feBlend mode="normal" in2="effect1_backgroundBlur_29_62543" result="effect2_dropShadow_29_62543" />
            <feBlend mode="normal" in="SourceGraphic" in2="effect2_dropShadow_29_62543" result="shape" />
        </filter>
        <filter id="filter1_f_29_62543" x="-208.631" y="-254.568" width="841" height="841" filterUnits="userSpaceOnUse" colorInterpolationFilters="sRGB">
            <feFlood floodOpacity="0" result="BackgroundImageFix" />
            <feBlend mode="normal" in="SourceGraphic" in2="BackgroundImageFix" result="shape" />
            <feGaussianBlur stdDeviation="113.418" result="effect1_foregroundBlur_29_62543" />
        </filter>
        <linearGradient id="paint0_linear_29_62543" x1="194.584" y1="24.9888" x2="491.464" y2="664.635" gradientUnits="userSpaceOnUse">
            <stop stopColor="white" stopOpacity="0.51" />
            <stop offset="1" stopColor="white" stopOpacity="0" />
        </linearGradient>
        <linearGradient id="paint1_linear_29_62543" x1="163.245" y1="23.3132" x2="465.691" y2="593.88" gradientUnits="userSpaceOnUse">
            <stop stopColor="white" />
            <stop offset="1" stopColor="white" stopOpacity="0.2" />
        </linearGradient>
        <clipPath id="clip0_29_62543">
            <path d="M152.633 41.6945C162.42 24.7424 184.097 18.9342 201.049 28.7215L624.634 273.278C641.586 283.066 647.395 304.742 637.607 321.695L504.696 551.904C494.908 568.856 473.232 574.664 456.28 564.877L32.6947 320.32C15.7425 310.533 9.93425 288.856 19.7216 271.904L152.633 41.6945Z" fill="white" />
        </clipPath>
        <clipPath id="clip1_29_62543">
            <rect width="35.443" height="42.5316" fill="white" transform="translate(576.218 286.252) rotate(30)" />
        </clipPath>
    </defs>
</svg>