<svg width="572" height="560" viewBox="0 0 572 560" fill="none"
    xmlns="http://www.w3.org/2000/svg">
    <g clipPath="url(#clip0_18_77348)">
        <g clipPath="url(#clip1_18_77348)">
            <rect width="281.69" height="609.953" transform="translate(15.7744 78.2723)" fill="white" />
            <path opacity="0.35" d="M268.545 93.296C268.545 92.3971 269.273 91.6684 270.172 91.6684H282.692C283.591 91.6684 284.319 92.3971 284.319 93.296V97.803C284.319 98.7019 283.591 99.4306 282.692 99.4306H270.172C269.273 99.4306 268.545 98.7019 268.545 97.803V93.296Z" stroke="black" strokeWidth="0.751174" />
            <path opacity="0.4" d="M285.446 94.0471V97.0518C286.051 96.7973 286.444 96.2053 286.444 95.5495C286.444 94.8936 286.051 94.3016 285.446 94.0471Z" fill="black" />
            <path d="M269.671 93.7967C269.671 93.2436 270.119 92.7952 270.672 92.7952H282.19C282.744 92.7952 283.192 93.2436 283.192 93.7967V97.3022C283.192 97.8554 282.744 98.3038 282.19 98.3038H270.672C270.119 98.3038 269.671 97.8554 269.671 97.3022V93.7967Z" fill="black" />
            <path fillRule="evenodd" clipRule="evenodd" d="M258.651 93.0014C260.316 93.0015 261.917 93.6411 263.123 94.788C263.214 94.8765 263.359 94.8754 263.449 94.7855L264.317 93.9091C264.362 93.8635 264.388 93.8017 264.387 93.7374C264.387 93.6731 264.361 93.6117 264.315 93.5666C261.149 90.5322 256.154 90.5322 252.987 93.5666C252.941 93.6116 252.915 93.6731 252.915 93.7374C252.915 93.8017 252.94 93.8635 252.985 93.9091L253.854 94.7855C253.943 94.8755 254.088 94.8767 254.179 94.788C255.386 93.641 256.987 93.0014 258.651 93.0014ZM258.652 95.8527C259.566 95.8526 260.448 96.1925 261.126 96.8064C261.218 96.8935 261.362 96.8916 261.451 96.8022L262.319 95.9258C262.364 95.8798 262.39 95.8175 262.389 95.7527C262.388 95.6879 262.362 95.626 262.315 95.581C260.251 93.6607 257.054 93.6607 254.99 95.581C254.943 95.626 254.916 95.6879 254.916 95.7527C254.915 95.8175 254.941 95.8799 254.986 95.9258L255.853 96.8022C255.943 96.8916 256.087 96.8935 256.179 96.8064C256.856 96.193 257.738 95.8531 258.652 95.8527ZM260.389 97.771C260.39 97.836 260.365 97.8987 260.318 97.9442L258.818 99.4583C258.774 99.5028 258.714 99.5278 258.652 99.5278C258.589 99.5278 258.529 99.5028 258.485 99.4583L256.984 97.9442C256.938 97.8986 256.913 97.836 256.914 97.771C256.915 97.706 256.943 97.6445 256.992 97.6009C257.95 96.7905 259.353 96.7905 260.311 97.6009C260.36 97.6445 260.388 97.706 260.389 97.771Z" fill="black" />
            <path fillRule="evenodd" clipRule="evenodd" d="M248.388 91.5431H247.637C247.222 91.5431 246.886 91.8794 246.886 92.2943V98.8044C246.886 99.2193 247.222 99.5556 247.637 99.5556H248.388C248.803 99.5556 249.139 99.2193 249.139 98.8044V92.2943C249.139 91.8794 248.803 91.5431 248.388 91.5431ZM244.131 93.2959H244.882C245.297 93.2959 245.634 93.6322 245.634 94.047V98.8045C245.634 99.2193 245.297 99.5556 244.882 99.5556H244.131C243.716 99.5556 243.38 99.2193 243.38 98.8045V94.047C243.38 93.6322 243.716 93.2959 244.131 93.2959ZM241.377 95.0485H240.626C240.211 95.0485 239.875 95.3848 239.875 95.7997V98.8044C239.875 99.2193 240.211 99.5556 240.626 99.5556H241.377C241.792 99.5556 242.128 99.2193 242.128 98.8044V95.7997C242.128 95.3848 241.792 95.0485 241.377 95.0485ZM237.871 96.5509H237.12C236.705 96.5509 236.369 96.8872 236.369 97.3021V98.8044C236.369 99.2193 236.705 99.5556 237.12 99.5556H237.871C238.286 99.5556 238.623 99.2193 238.623 98.8044V97.3021C238.623 96.8872 238.286 96.5509 237.871 96.5509Z" fill="black" />
            <path d="M43.8092 99.4978C45.8284 99.4978 47.0278 97.9188 47.0278 95.2449C47.0278 94.2381 46.8352 93.3908 46.4666 92.7361C45.9329 91.7183 45.0141 91.1681 43.8532 91.1681C42.1257 91.1681 40.9043 92.329 40.9043 93.9575C40.9043 95.487 42.0046 96.5983 43.5176 96.5983C44.4474 96.5983 45.2012 96.1637 45.5753 95.4099H45.5918C45.5918 95.4099 45.6138 95.4099 45.6193 95.4099C45.6303 95.4099 45.6688 95.4099 45.6688 95.4099C45.6688 97.2255 44.9811 98.3094 43.8202 98.3094C43.138 98.3094 42.6098 97.9353 42.4283 97.3356H41.0143C41.2509 98.6395 42.3568 99.4978 43.8092 99.4978ZM43.8587 95.4705C42.9455 95.4705 42.2962 94.8213 42.2962 93.9135C42.2962 93.0277 42.9785 92.351 43.8642 92.351C44.75 92.351 45.4322 93.0387 45.4322 93.9355C45.4322 94.8213 44.7665 95.4705 43.8587 95.4705Z" fill="black" />
            <path d="M49.3497 99.4207C49.8724 99.4207 50.23 99.0466 50.23 98.5515C50.23 98.0508 49.8724 97.6822 49.3497 97.6822C48.8326 97.6822 48.4694 98.0508 48.4694 98.5515C48.4694 99.0466 48.8326 99.4207 49.3497 99.4207ZM49.3497 95.2944C49.8724 95.2944 50.23 94.9258 50.23 94.4306C50.23 93.93 49.8724 93.5614 49.3497 93.5614C48.8326 93.5614 48.4694 93.93 48.4694 94.4306C48.4694 94.9258 48.8326 95.2944 49.3497 95.2944Z" fill="black" />
            <path d="M55.3799 99.3052H56.7388V97.8252H57.8116V96.6258H56.7388V91.3662H54.7362C53.3332 93.4788 52.2164 95.2449 51.5011 96.5598V97.8252H55.3799V99.3052ZM52.816 96.5763C53.7403 94.9478 54.5656 93.6439 55.3249 92.5215H55.4019V96.6588H52.816V96.5763Z" fill="black" />
            <path d="M60.8378 99.3052H62.2573V91.3662H60.8433L58.7692 92.8186V94.1831L60.7443 92.7966H60.8378V99.3052Z" fill="black" />
        </g>
        <path d="M311.294 227.717H312.406C313.02 227.717 313.517 228.217 313.517 228.834V301.762C313.517 302.379 313.02 302.879 312.406 302.879H311.294V227.717Z" fill="#303030" />
        <path d="M2.22266 318.506L1.11089 318.506C0.496874 318.506 -0.000880198 318.006 -0.000880144 317.39L-0.000876321 273.484C-0.000876268 272.867 0.496878 272.368 1.11089 272.368L2.22266 272.368L2.22266 318.506Z" fill="#303030" />
        <path d="M2.22266 257.484L1.11089 257.484C0.496874 257.484 -0.000880198 256.984 -0.000880144 256.368L-0.000876321 212.462C-0.000876268 211.845 0.496878 211.346 1.11089 211.346L2.22266 211.346L2.22266 257.484Z" fill="#333333" />
        <path d="M2.22266 189.021L1.11089 189.021C0.496878 189.021 -0.000877337 188.521 -0.000877283 187.904L-0.000875404 166.323C-0.00087535 165.707 0.496879 165.207 1.11089 165.207L2.22266 165.207L2.22266 189.021Z" fill="#333333" />
        <path fillRule="evenodd" clipRule="evenodd" d="M4.58058 97.4236C2.22266 104.71 2.22266 113.713 2.22266 131.719V634.778C2.22266 652.785 2.22266 661.788 4.58058 669.074C9.3461 683.8 20.8451 695.345 35.5118 700.13C42.7688 702.498 51.7358 702.498 69.6698 702.498H243.846C261.78 702.498 270.747 702.498 278.004 700.13C292.671 695.345 304.17 683.8 308.936 669.074C311.294 661.788 311.294 652.785 311.294 634.778V131.719C311.294 113.713 311.294 104.71 308.936 97.4236C304.17 82.6976 292.671 71.1522 278.004 66.3674C270.747 64 261.78 64 243.846 64H69.6698C51.7358 64 42.7688 64 35.5118 66.3674C20.8451 71.1522 9.3461 82.6976 4.58058 97.4236ZM80.7881 82.2322V85.5809L80.841 85.5793L80.7878 85.953C80.7878 94.7894 87.9223 101.953 96.7231 101.953H216.794C225.595 101.953 232.729 94.7894 232.729 85.953L232.676 85.5793L232.729 85.5809V82.2322C232.729 79.9717 234.554 78.1392 236.805 78.1392L246.352 78.1392C261.276 78.1392 268.738 78.1392 274.69 80.3971C284.044 83.9461 291.428 91.36 294.963 100.752C297.212 106.727 297.212 114.22 297.212 129.204V637.294C297.212 652.278 297.212 659.77 294.963 665.746C291.428 675.138 284.044 682.552 274.69 686.101C268.738 688.358 261.276 688.358 246.352 688.358H67.165C52.2408 688.358 44.7787 688.358 38.8273 686.101C29.473 682.552 22.0889 675.138 18.5542 665.746C16.3054 659.77 16.3054 652.278 16.3054 637.294V129.204C16.3054 114.22 16.3054 106.727 18.5542 100.752C22.0889 91.36 29.473 83.9461 38.8273 80.3971C44.7787 78.1392 52.2408 78.1392 67.165 78.1392L76.7116 78.1392C78.963 78.1392 80.7881 79.9717 80.7881 82.2322Z" fill="#333333" />
        <path fillRule="evenodd" clipRule="evenodd" d="M244.143 65.4884H69.3734C51.6576 65.4884 42.9755 65.4976 35.9699 67.783C21.7545 72.4206 10.6093 83.6107 5.99042 97.8836C3.71419 104.917 3.70504 113.635 3.70504 131.422V635.076C3.70504 652.863 3.71419 661.58 5.99042 668.614C10.6093 682.887 21.7545 694.077 35.9699 698.715C42.9755 701 51.6576 701.009 69.3734 701.009H244.143C261.859 701.009 270.541 701 277.547 698.715C291.762 694.077 302.907 682.887 307.526 668.614C309.802 661.58 309.811 652.863 309.811 635.076V131.422C309.811 113.635 309.802 104.917 307.526 97.8836C302.907 83.6107 291.762 72.4206 277.547 67.783C270.541 65.4976 261.859 65.4884 244.143 65.4884ZM5.28552 97.6536C2.96387 104.828 2.96387 113.692 2.96387 131.422V635.076C2.96387 652.805 2.96387 661.67 5.28552 668.844C9.97773 683.344 21.2998 694.711 35.7409 699.422C42.8862 701.754 51.7153 701.754 69.3734 701.754H244.143C261.801 701.754 270.63 701.754 277.776 699.422C292.217 694.711 303.539 683.344 308.231 668.844C310.553 661.67 310.553 652.805 310.553 635.076V131.422C310.553 113.692 310.553 104.828 308.231 97.6536C303.539 83.1542 292.217 71.7864 277.776 67.0753C270.63 64.7443 261.801 64.7443 244.143 64.7443H69.3734C51.7153 64.7443 42.8862 64.7443 35.7409 67.0753C21.2998 71.7864 9.97773 83.1542 5.28552 97.6536Z" fill="#303030" />
        <path fillRule="evenodd" clipRule="evenodd" d="M8.10721 98.5733C5.93066 105.299 5.93066 113.61 5.93066 130.231V636.266C5.93066 652.888 5.93066 661.198 8.10721 667.924C12.5062 681.517 23.1206 692.175 36.6591 696.591C43.3579 698.777 51.6351 698.777 68.1896 698.777H245.331C261.885 698.777 270.163 698.777 276.861 696.591C290.4 692.175 301.014 681.517 305.413 667.924C307.59 661.198 307.59 652.888 307.59 636.266V130.231C307.59 113.61 307.59 105.299 305.413 98.5733C301.014 84.9801 290.4 74.3229 276.861 69.9062C270.163 67.7208 261.885 67.7208 245.331 67.7208H68.1896C51.6351 67.7208 43.3579 67.7208 36.6591 69.9062C23.1206 74.3229 12.5062 84.9801 8.10721 98.5733ZM80.7893 82.2321V85.5809L80.8423 85.5792L80.7891 85.953C80.7891 94.7893 87.9236 101.953 96.7244 101.953H216.795C225.596 101.953 232.73 94.7893 232.73 85.953L232.677 85.5792L232.73 85.5809V82.2321C232.73 79.9717 234.555 78.1392 236.807 78.1392L246.353 78.1392C261.278 78.1392 268.74 78.1392 274.691 80.3971C284.045 83.946 291.429 91.36 294.964 100.752C297.213 106.727 297.213 114.22 297.213 129.204V637.293C297.213 652.278 297.213 659.77 294.964 665.746C291.429 675.138 284.045 682.552 274.691 686.101C268.74 688.358 261.278 688.358 246.353 688.358H67.1662C52.242 688.358 44.7799 688.358 38.8286 686.101C29.4743 682.552 22.0902 675.138 18.5555 665.746C16.3066 659.77 16.3066 652.278 16.3066 637.293V129.204C16.3066 114.22 16.3066 106.727 18.5555 100.752C22.0902 91.36 29.4743 83.946 38.8286 80.3971C44.7799 78.1392 52.242 78.1392 67.1662 78.1392L76.7129 78.1392C78.9642 78.1392 80.7893 79.9717 80.7893 82.2321Z" fill="#121515" />
        <rect x="245.33" y="64" width="4.44705" height="3.72085" fill="#414141" />
        <rect x="307.588" y="127.999" width="3.70594" height="4.46502" fill="#414141" />
        <rect x="2.22363" y="127.999" width="3.70589" height="4.46502" fill="#414141" />
        <path fillRule="evenodd" clipRule="evenodd" d="M188.259 93.7668C191.533 93.7668 194.188 91.1014 194.188 87.8135C194.188 84.5255 191.533 81.8601 188.259 81.8601C184.984 81.8601 182.329 84.5255 182.329 87.8135C182.329 91.1014 184.984 93.7668 188.259 93.7668Z" fill="#262C2D" />
        <path fillRule="evenodd" clipRule="evenodd" d="M188.258 91.5344C190.304 91.5344 191.964 89.8685 191.964 87.8135C191.964 85.7585 190.304 84.0927 188.258 84.0927C186.211 84.0927 184.552 85.7585 184.552 87.8135C184.552 89.8685 186.211 91.5344 188.258 91.5344Z" fill="#121515" />
        <path opacity="0.4" fillRule="evenodd" clipRule="evenodd" d="M188.259 87.07C188.669 87.07 189.001 86.7366 189.001 86.3254C189.001 85.9143 188.669 85.5809 188.259 85.5809C187.85 85.5809 187.518 85.9143 187.518 86.3254C187.518 86.7366 187.85 87.07 188.259 87.07Z" fill="#636F73" />
        <path fillRule="evenodd" clipRule="evenodd" d="M138.601 87.8134C138.601 86.5805 139.6 85.5809 140.833 85.5809H172.686C173.919 85.5809 174.918 86.5805 174.918 87.8134C174.918 89.0464 173.919 90.046 172.686 90.046H140.833C139.6 90.046 138.601 89.0464 138.601 87.8134Z" fill="#262C2D" />
        <g filter="url(#filter0_dd_18_77348)">
            <g clipPath="url(#clip2_18_77348)">
                <rect width="281.69" height="609.953" transform="translate(277.774 14.2723)" fill="white" />
                <path opacity="0.35" d="M530.545 29.296C530.545 28.3971 531.273 27.6684 532.172 27.6684H544.692C545.591 27.6684 546.319 28.3971 546.319 29.296V33.803C546.319 34.7019 545.591 35.4306 544.692 35.4306H532.172C531.273 35.4306 530.545 34.7019 530.545 33.803V29.296Z" stroke="black" strokeWidth="0.751174" />
                <path opacity="0.4" d="M547.446 30.0471V33.0518C548.05 32.7973 548.443 32.2053 548.443 31.5495C548.443 30.8936 548.05 30.3016 547.446 30.0471Z" fill="black" />
                <path d="M531.671 29.7967C531.671 29.2436 532.12 28.7952 532.673 28.7952H544.191C544.744 28.7952 545.193 29.2436 545.193 29.7967V33.3022C545.193 33.8554 544.744 34.3038 544.191 34.3038H532.673C532.12 34.3038 531.671 33.8554 531.671 33.3022V29.7967Z" fill="black" />
                <path fillRule="evenodd" clipRule="evenodd" d="M520.652 29.0014C522.316 29.0015 523.917 29.6411 525.124 30.788C525.215 30.8765 525.36 30.8754 525.449 30.7855L526.318 29.9091C526.363 29.8635 526.388 29.8017 526.388 29.7374C526.387 29.6731 526.361 29.6117 526.316 29.5666C523.149 26.5322 518.154 26.5322 514.988 29.5666C514.942 29.6116 514.916 29.6731 514.916 29.7374C514.915 29.8017 514.94 29.8635 514.986 29.9091L515.854 30.7855C515.944 30.8755 516.089 30.8767 516.18 30.788C517.386 29.641 518.987 29.0014 520.652 29.0014ZM520.652 31.8527C521.566 31.8526 522.448 32.1925 523.126 32.8064C523.218 32.8935 523.362 32.8916 523.452 32.8021L524.319 31.9258C524.365 31.8798 524.39 31.8175 524.389 31.7527C524.389 31.6879 524.362 31.626 524.316 31.581C522.251 29.6607 519.054 29.6607 516.99 31.581C516.943 31.626 516.917 31.6879 516.916 31.7527C516.915 31.8175 516.941 31.8799 516.987 31.9258L517.854 32.8021C517.943 32.8916 518.087 32.8935 518.179 32.8064C518.857 32.1929 519.738 31.853 520.652 31.8527ZM522.389 33.771C522.391 33.836 522.365 33.8987 522.319 33.9442L520.818 35.4583C520.774 35.5028 520.714 35.5278 520.652 35.5278C520.589 35.5278 520.529 35.5028 520.485 35.4583L518.985 33.9442C518.938 33.8986 518.913 33.8359 518.914 33.771C518.916 33.706 518.944 33.6445 518.992 33.6009C519.95 32.7905 521.354 32.7905 522.312 33.6009C522.36 33.6445 522.388 33.706 522.389 33.771Z" fill="black" />
                <path fillRule="evenodd" clipRule="evenodd" d="M510.388 27.5431H509.637C509.222 27.5431 508.886 27.8794 508.886 28.2943V34.8044C508.886 35.2193 509.222 35.5556 509.637 35.5556H510.388C510.803 35.5556 511.139 35.2193 511.139 34.8044V28.2943C511.139 27.8794 510.803 27.5431 510.388 27.5431ZM506.131 29.2958H506.883C507.297 29.2958 507.634 29.6321 507.634 30.047V34.8044C507.634 35.2193 507.297 35.5556 506.883 35.5556H506.131C505.717 35.5556 505.38 35.2193 505.38 34.8044V30.047C505.38 29.6321 505.717 29.2958 506.131 29.2958ZM503.377 31.0486H502.626C502.211 31.0486 501.874 31.3849 501.874 31.7998V34.8045C501.874 35.2193 502.211 35.5556 502.626 35.5556H503.377C503.792 35.5556 504.128 35.2193 504.128 34.8045V31.7998C504.128 31.3849 503.792 31.0486 503.377 31.0486ZM499.871 32.5509H499.12C498.705 32.5509 498.369 32.8872 498.369 33.3021V34.8045C498.369 35.2193 498.705 35.5556 499.12 35.5556H499.871C500.286 35.5556 500.623 35.2193 500.623 34.8045V33.3021C500.623 32.8872 500.286 32.5509 499.871 32.5509Z" fill="black" />
                <path d="M305.809 35.4978C307.828 35.4978 309.027 33.9188 309.027 31.2449C309.027 30.2381 308.835 29.3908 308.466 28.7361C307.932 27.7183 307.014 27.1681 305.853 27.1681C304.125 27.1681 302.904 28.329 302.904 29.9575C302.904 31.487 304.004 32.5983 305.517 32.5983C306.447 32.5983 307.201 32.1637 307.575 31.4099H307.591C307.591 31.4099 307.613 31.4099 307.619 31.4099C307.63 31.4099 307.668 31.4099 307.668 31.4099C307.668 33.2255 306.981 34.3094 305.82 34.3094C305.138 34.3094 304.609 33.9353 304.428 33.3356H303.014C303.25 34.6395 304.356 35.4978 305.809 35.4978ZM305.858 31.4705C304.945 31.4705 304.296 30.8213 304.296 29.9135C304.296 29.0277 304.978 28.351 305.864 28.351C306.75 28.351 307.432 29.0387 307.432 29.9355C307.432 30.8213 306.766 31.4705 305.858 31.4705Z" fill="black" />
                <path d="M311.349 35.4207C311.872 35.4207 312.23 35.0466 312.23 34.5515C312.23 34.0508 311.872 33.6822 311.349 33.6822C310.832 33.6822 310.469 34.0508 310.469 34.5515C310.469 35.0466 310.832 35.4207 311.349 35.4207ZM311.349 31.2944C311.872 31.2944 312.23 30.9258 312.23 30.4306C312.23 29.93 311.872 29.5614 311.349 29.5614C310.832 29.5614 310.469 29.93 310.469 30.4306C310.469 30.9258 310.832 31.2944 311.349 31.2944Z" fill="black" />
                <path d="M317.379 35.3052H318.738V33.8252H319.811V32.6258H318.738V27.3662H316.736C315.333 29.4788 314.216 31.2449 313.501 32.5598V33.8252H317.379V35.3052ZM314.816 32.5763C315.74 30.9478 316.565 29.6439 317.324 28.5215H317.401V32.6588H314.816V32.5763Z" fill="black" />
                <path d="M322.837 35.3052H324.257V27.3662H322.843L320.769 28.8186V30.1831L322.744 28.7966H322.837V35.3052Z" fill="black" />
            </g>
            <path d="M573.294 163.717H574.406C575.02 163.717 575.517 164.217 575.517 164.834V237.762C575.517 238.379 575.02 238.879 574.406 238.879H573.294V163.717Z" fill="#303030" />
            <path d="M264.223 254.506L263.111 254.506C262.497 254.506 261.999 254.006 261.999 253.39L261.999 209.484C261.999 208.867 262.497 208.368 263.111 208.368L264.223 208.368L264.223 254.506Z" fill="#303030" />
            <path d="M264.223 193.484L263.111 193.484C262.497 193.484 261.999 192.984 261.999 192.368L261.999 148.462C261.999 147.845 262.497 147.346 263.111 147.346L264.223 147.346L264.223 193.484Z" fill="#333333" />
            <path d="M264.223 125.021L263.111 125.021C262.497 125.021 261.999 124.521 261.999 123.904L261.999 102.323C261.999 101.707 262.497 101.207 263.111 101.207L264.223 101.207L264.223 125.021Z" fill="#333333" />
            <path fillRule="evenodd" clipRule="evenodd" d="M266.581 33.4236C264.223 40.7098 264.223 49.713 264.223 67.7195V570.778C264.223 588.785 264.223 597.788 266.581 605.074C271.346 619.8 282.845 631.345 297.512 636.13C304.769 638.498 313.736 638.498 331.67 638.498H505.846C523.78 638.498 532.747 638.498 540.004 636.13C554.671 631.345 566.17 619.8 570.936 605.074C573.294 597.788 573.294 588.785 573.294 570.778V67.7194C573.294 49.713 573.294 40.7098 570.936 33.4236C566.17 18.6976 554.671 7.15221 540.004 2.36745C532.747 0 523.78 0 505.846 0H331.67C313.736 0 304.769 0 297.512 2.36745C282.845 7.15221 271.346 18.6976 266.581 33.4236ZM342.788 18.2322V21.5809L342.841 21.5793L342.788 21.953C342.788 30.7894 349.922 37.9526 358.723 37.9526H478.794C487.595 37.9526 494.729 30.7894 494.729 21.953L494.676 21.5793L494.729 21.5809V18.2322C494.729 15.9717 496.554 14.1392 498.805 14.1392L508.352 14.1392C523.276 14.1392 530.738 14.1392 536.69 16.3971C546.044 19.9461 553.428 27.36 556.963 36.7521C559.212 42.7274 559.212 50.2197 559.212 65.2041V573.294C559.212 588.278 559.212 595.77 556.963 601.746C553.428 611.138 546.044 618.552 536.69 622.101C530.738 624.358 523.276 624.358 508.352 624.358H329.165C314.241 624.358 306.779 624.358 300.827 622.101C291.473 618.552 284.089 611.138 280.554 601.746C278.305 595.77 278.305 588.278 278.305 573.294V65.2041C278.305 50.2197 278.305 42.7274 280.554 36.7521C284.089 27.36 291.473 19.9461 300.827 16.3971C306.779 14.1392 314.241 14.1392 329.165 14.1392L338.712 14.1392C340.963 14.1392 342.788 15.9717 342.788 18.2322Z" fill="#333333" />
            <path fillRule="evenodd" clipRule="evenodd" d="M506.143 1.48843H331.373C313.658 1.48843 304.975 1.49761 297.97 3.78303C283.754 8.42057 272.609 19.6107 267.99 33.8836C265.714 40.9174 265.705 49.6345 265.705 67.4218V571.076C265.705 588.863 265.714 597.58 267.99 604.614C272.609 618.887 283.754 630.077 297.97 634.715C304.975 637 313.658 637.009 331.373 637.009H506.143C523.859 637.009 532.541 637 539.547 634.715C553.762 630.077 564.907 618.887 569.526 604.614C571.802 597.58 571.811 588.863 571.811 571.076V67.4219C571.811 49.6345 571.802 40.9174 569.526 33.8836C564.907 19.6107 553.762 8.42057 539.547 3.78303C532.541 1.49761 523.859 1.48843 506.143 1.48843ZM267.286 33.6536C264.964 40.8278 264.964 49.6925 264.964 67.4218V571.076C264.964 588.805 264.964 597.67 267.286 604.844C271.978 619.344 283.3 630.711 297.741 635.422C304.886 637.754 313.715 637.754 331.373 637.754H506.143C523.801 637.754 532.63 637.754 539.776 635.422C554.217 630.711 565.539 619.344 570.231 604.844C572.553 597.67 572.553 588.805 572.553 571.076V67.4219C572.553 49.6925 572.553 40.8278 570.231 33.6536C565.539 19.1542 554.217 7.78644 539.776 3.07529C532.63 0.744263 523.801 0.744263 506.143 0.744263H331.373C313.715 0.744263 304.886 0.744263 297.741 3.07529C283.3 7.78644 271.978 19.1542 267.286 33.6536Z" fill="#303030" />
            <path fillRule="evenodd" clipRule="evenodd" d="M270.107 34.5733C267.931 41.2991 267.931 49.6098 267.931 66.2311V572.266C267.931 588.888 267.931 597.198 270.107 603.924C274.506 617.517 285.121 628.175 298.659 632.591C305.358 634.777 313.635 634.777 330.19 634.777H507.331C523.885 634.777 532.163 634.777 538.861 632.591C552.4 628.175 563.014 617.517 567.413 603.924C569.59 597.198 569.59 588.888 569.59 572.266V66.2311C569.59 49.6098 569.59 41.2991 567.413 34.5733C563.014 20.9801 552.4 10.3229 538.861 5.90616C532.163 3.72083 523.885 3.72083 507.331 3.72083H330.19C313.635 3.72083 305.358 3.72083 298.659 5.90616C285.121 10.3229 274.506 20.9801 270.107 34.5733ZM342.789 18.2321V21.5809L342.842 21.5792L342.789 21.953C342.789 30.7893 349.924 37.9526 358.724 37.9526H478.795C487.596 37.9526 494.73 30.7893 494.73 21.953L494.677 21.5792L494.73 21.5809V18.2321C494.73 15.9717 496.555 14.1392 498.807 14.1392L508.353 14.1392C523.278 14.1392 530.74 14.1392 536.691 16.3971C546.045 19.946 553.429 27.36 556.964 36.752C559.213 42.7274 559.213 50.2196 559.213 65.2041V573.293C559.213 588.278 559.213 595.77 556.964 601.746C553.429 611.138 546.045 618.552 536.691 622.101C530.74 624.358 523.278 624.358 508.353 624.358H329.166C314.242 624.358 306.78 624.358 300.829 622.101C291.474 618.552 284.09 611.138 280.555 601.746C278.307 595.77 278.307 588.278 278.307 573.293V65.2041C278.307 50.2196 278.307 42.7274 280.555 36.752C284.09 27.36 291.474 19.946 300.829 16.3971C306.78 14.1392 314.242 14.1392 329.166 14.1392L338.713 14.1392C340.964 14.1392 342.789 15.9717 342.789 18.2321Z" fill="#121515" />
            <rect x="507.33" width="4.44705" height="3.72085" fill="#414141" />
            <rect x="569.588" y="63.9985" width="3.70594" height="4.46502" fill="#414141" />
            <rect x="264.224" y="63.9985" width="3.70589" height="4.46502" fill="#414141" />
            <path fillRule="evenodd" clipRule="evenodd" d="M450.259 29.7668C453.534 29.7668 456.188 27.1014 456.188 23.8135C456.188 20.5255 453.534 17.8601 450.259 17.8601C446.984 17.8601 444.33 20.5255 444.33 23.8135C444.33 27.1014 446.984 29.7668 450.259 29.7668Z" fill="#262C2D" />
            <path fillRule="evenodd" clipRule="evenodd" d="M450.258 27.5344C452.305 27.5344 453.964 25.8685 453.964 23.8135C453.964 21.7585 452.305 20.0927 450.258 20.0927C448.211 20.0927 446.552 21.7585 446.552 23.8135C446.552 25.8685 448.211 27.5344 450.258 27.5344Z" fill="#121515" />
            <path opacity="0.4" fillRule="evenodd" clipRule="evenodd" d="M450.26 23.07C450.669 23.07 451.001 22.7366 451.001 22.3254C451.001 21.9143 450.669 21.5809 450.26 21.5809C449.85 21.5809 449.518 21.9143 449.518 22.3254C449.518 22.7366 449.85 23.07 450.26 23.07Z" fill="#636F73" />
            <path fillRule="evenodd" clipRule="evenodd" d="M400.601 23.8134C400.601 22.5805 401.6 21.5809 402.833 21.5809H434.686C435.919 21.5809 436.918 22.5805 436.918 23.8134C436.918 25.0464 435.919 26.046 434.686 26.046H402.833C401.6 26.046 400.601 25.0464 400.601 23.8134Z" fill="#262C2D" />
        </g>
    </g>
    <defs>
        <filter id="filter0_dd_18_77348" x="240.966" y="-21.0329" width="404.133" height="730.141" filterUnits="userSpaceOnUse" colorInterpolationFilters="sRGB">
            <feFlood floodOpacity="0" result="BackgroundImageFix" />
            <feColorMatrix in="SourceAlpha" type="matrix" values="0 0 0 0 0 0 0 0 0 0 0 0 0 0 0 0 0 0 127 0" result="hardAlpha" />
            <feMorphology radius="1.50235" operator="erode" in="SourceAlpha" result="effect1_dropShadow_18_77348" />
            <feOffset dx="12.0188" dy="12.0188" />
            <feGaussianBlur stdDeviation="12.0188" />
            <feColorMatrix type="matrix" values="0 0 0 0 0.0627451 0 0 0 0 0.0941176 0 0 0 0 0.156863 0 0 0 0.08 0" />
            <feBlend mode="normal" in2="BackgroundImageFix" result="effect1_dropShadow_18_77348" />
            <feColorMatrix in="SourceAlpha" type="matrix" values="0 0 0 0 0 0 0 0 0 0 0 0 0 0 0 0 0 0 127 0" result="hardAlpha" />
            <feMorphology radius="3.00469" operator="erode" in="SourceAlpha" result="effect2_dropShadow_18_77348" />
            <feOffset dx="24.0376" dy="24.0376" />
            <feGaussianBlur stdDeviation="24.0376" />
            <feColorMatrix type="matrix" values="0 0 0 0 0.0627451 0 0 0 0 0.0941176 0 0 0 0 0.156863 0 0 0 0.2 0" />
            <feBlend mode="normal" in2="effect1_dropShadow_18_77348" result="effect2_dropShadow_18_77348" />
            <feBlend mode="normal" in="SourceGraphic" in2="effect2_dropShadow_18_77348" result="shape" />
        </filter>
        <clipPath id="clip0_18_77348">
            <rect width="720" height="560" fill="white" />
        </clipPath>
        <clipPath id="clip1_18_77348">
            <rect width="281.69" height="609.953" fill="white" transform="translate(15.7744 78.2723)" />
        </clipPath>
        <clipPath id="clip2_18_77348">
            <rect width="281.69" height="609.953" fill="white" transform="translate(277.774 14.2723)" />
        </clipPath>
    </defs>
</svg>